<?xml version="1.0"?>
<svg width="48" height="48" xmlns="http://www.w3.org/2000/svg" xmlns:svg="http://www.w3.org/2000/svg">
 <g class="layer">
  <title>Layer 1</title>
  <g id="surface1">
   <path d="m47.96094,24.01563c0.07422,-13.07813 -10.58203,-23.74219 -23.79688,-23.81641c-13.21875,-0.07422 -23.99218,10.46484 -24.0664,23.54687c-0.07422,13.07813 10.58203,23.74219 23.79687,23.81641c13.21875,0.07422 23.99219,-10.46875 24.06641,-23.54687zm0,0" fill="rgb(100%,100%,100%)" fill-rule="nonzero" id="svg_1" transform="matrix(1 0 0 1 0 0)"/>
   <path d="m47.968752,23.968751c0,-13.218751 -10.718751,-23.937501 -23.937501,-23.937501c-13.222657,0 -23.941407,10.718751 -23.941407,23.937501c0,13.222657 10.71875,23.941407 23.941407,23.941407c13.218751,0 23.937501,-10.71875 23.937501,-23.941407zm0,0" fill="rgb(6.27451%,83.529412%,76.078431%)" fill-rule="nonzero" id="svg_2" transform="matrix(1 0 0 1 0 0)"/>
   <path d="m31.00391,19.59766l6.64062,5.776732l-6.64062,5.774048l0,-11.55078zm0,0" fill="rgb(47.843137%,97.647059%,92.156863%)" fill-rule="nonzero" id="svg_3"/>
   <path d="m18.36328,30.54297l-7.046869,-5.725107l7.014779,-5.821773l0.032091,11.54688zm0,0" fill="rgb(47.843137%,97.647059%,92.156863%)" fill-rule="nonzero" id="svg_4" transform="matrix(1 0 0 1 0 0)"/>
  </g>
 </g>
</svg>